<svg width="150" height="54" viewBox="0 0 150 54" fill="none" xmlns="http://www.w3.org/2000/svg">
<mask id="path-1-inside-1_222_1180" fill="white">
<path fill-rule="evenodd" clip-rule="evenodd" d="M2.11921 0C0.948801 0 0 0.948801 0 2.11921V44.8808C0 46.0512 0.9488 47 2.1192 47H71.3321L75.7151 53.8642L80.0981 47H147.881C149.051 47 150 46.0512 150 44.8808V2.11921C150 0.9488 149.051 0 147.881 0H2.11921Z"/>
</mask>
<path fill-rule="evenodd" clip-rule="evenodd" d="M2.11921 0C0.948801 0 0 0.948801 0 2.11921V44.8808C0 46.0512 0.9488 47 2.1192 47H71.3321L75.7151 53.8642L80.0981 47H147.881C149.051 47 150 46.0512 150 44.8808V2.11921C150 0.9488 149.051 0 147.881 0H2.11921Z" fill="white"/>
<path d="M71.3321 47L71.4437 46.9287L71.4047 46.8675H71.3321V47ZM75.7151 53.8642L75.6035 53.9355L75.7151 54.1103L75.8267 53.9355L75.7151 53.8642ZM80.0981 47V46.8675H80.0255L79.9865 46.9287L80.0981 47ZM0.13245 2.11921C0.13245 1.02195 1.02195 0.13245 2.11921 0.13245V-0.13245C0.87565 -0.13245 -0.13245 0.875651 -0.13245 2.11921H0.13245ZM0.13245 44.8808V2.11921H-0.13245V44.8808H0.13245ZM2.1192 46.8675C1.02195 46.8675 0.13245 45.9781 0.13245 44.8808H-0.13245C-0.13245 46.1244 0.875649 47.1325 2.1192 47.1325V46.8675ZM71.3321 46.8675H2.1192V47.1325H71.3321V46.8675ZM75.8267 53.7929L71.4437 46.9287L71.2205 47.0713L75.6035 53.9355L75.8267 53.7929ZM79.9865 46.9287L75.6035 53.7929L75.8267 53.9355L80.2098 47.0713L79.9865 46.9287ZM147.881 46.8675H80.0981V47.1325H147.881V46.8675ZM149.868 44.8808C149.868 45.9781 148.978 46.8675 147.881 46.8675V47.1325C149.124 47.1325 150.132 46.1244 150.132 44.8808H149.868ZM149.868 2.11921V44.8808H150.132V2.11921H149.868ZM147.881 0.13245C148.978 0.13245 149.868 1.02195 149.868 2.11921H150.132C150.132 0.87565 149.124 -0.13245 147.881 -0.13245V0.13245ZM2.11921 0.13245H147.881V-0.13245H2.11921V0.13245Z" fill="#05454B" mask="url(#path-1-inside-1_222_1180)"/>
</svg>
