<svg width="40" height="31" viewBox="0 0 40 31" fill="none" xmlns="http://www.w3.org/2000/svg">
<mask id="path-1-inside-1_222_1180" fill="white">
<path fill-rule="evenodd" clip-rule="evenodd" d="M2.11921 0.864258C0.948801 0.864258 0 1.81306 0 2.98346V24.0431C0 25.2135 0.9488 26.1623 2.1192 26.1623H17.3966L19.9338 30.1358L22.471 26.1623H37.8808C39.0512 26.1623 40 25.2135 40 24.0431V2.98346C40 1.81306 39.0512 0.864258 37.8808 0.864258H2.11921Z"/>
</mask>
<path fill-rule="evenodd" clip-rule="evenodd" d="M2.11921 0.864258C0.948801 0.864258 0 1.81306 0 2.98346V24.0431C0 25.2135 0.9488 26.1623 2.1192 26.1623H17.3966L19.9338 30.1358L22.471 26.1623H37.8808C39.0512 26.1623 40 25.2135 40 24.0431V2.98346C40 1.81306 39.0512 0.864258 37.8808 0.864258H2.11921Z" fill="white"/>
<path d="M17.3966 26.1623L17.5082 26.091L17.4691 26.0298H17.3966V26.1623ZM19.9338 30.1358L19.8221 30.207L19.9338 30.3819L20.0454 30.207L19.9338 30.1358ZM22.471 26.1623V26.0298H22.3984L22.3593 26.091L22.471 26.1623ZM0.13245 2.98346C0.13245 1.88621 1.02195 0.996708 2.11921 0.996708V0.731807C0.87565 0.731807 -0.13245 1.73991 -0.13245 2.98346H0.13245ZM0.13245 24.0431V2.98346H-0.13245V24.0431H0.13245ZM2.1192 26.0298C1.02195 26.0298 0.13245 25.1403 0.13245 24.0431H-0.13245C-0.13245 25.2866 0.87565 26.2947 2.1192 26.2947V26.0298ZM17.3966 26.0298H2.1192V26.2947H17.3966V26.0298ZM20.0454 30.0645L17.5082 26.091L17.2849 26.2336L19.8221 30.207L20.0454 30.0645ZM22.3593 26.091L19.8221 30.0645L20.0454 30.207L22.5826 26.2336L22.3593 26.091ZM37.8808 26.0298H22.471V26.2947H37.8808V26.0298ZM39.8675 24.0431C39.8675 25.1403 38.9781 26.0298 37.8808 26.0298V26.2947C39.1244 26.2947 40.1325 25.2866 40.1325 24.0431H39.8675ZM39.8675 2.98346V24.0431H40.1325V2.98346H39.8675ZM37.8808 0.996708C38.9781 0.996708 39.8675 1.88621 39.8675 2.98346H40.1325C40.1325 1.73991 39.1244 0.731807 37.8808 0.731807V0.996708ZM2.11921 0.996708H37.8808V0.731807H2.11921V0.996708Z" fill="#05454B" mask="url(#path-1-inside-1_222_1180)"/>
</svg>
