<svg width="288" height="274" viewBox="0 0 288 274" fill="none" xmlns="http://www.w3.org/2000/svg">
<path d="M87.055 16.2501C82.5778 16.2273 78.969 12.5805 78.9907 8.10442C79.0135 3.62724 82.6603 0.0184353 87.1375 0.041213C91.6135 0.0639851 95.2224 3.7097 95.2007 8.18579C95.1779 12.663 91.5311 16.2729 87.055 16.2501Z" fill="#9AD3DA"/>
<path d="M134.014 44.9894C133.99 49.4655 130.343 53.0754 125.867 53.0537C121.391 53.0299 117.781 49.383 117.804 44.907C117.828 40.4309 121.473 36.821 125.949 36.8426C130.425 36.8665 134.036 40.5133 134.014 44.9894Z" fill="#9AD3DA"/>
<path d="M95.0144 44.7905C94.9905 49.2665 91.3437 52.8764 86.8676 52.8548C82.3915 52.8309 78.7816 49.1841 78.8044 44.708C78.8283 40.2319 82.474 36.622 86.9501 36.6437C91.4262 36.6675 95.0372 40.3144 95.0144 44.7905Z" fill="#9AD3DA"/>
<path d="M86.6829 89.4584C82.2058 89.4356 78.597 85.7888 78.6186 81.3127C78.6414 76.8366 82.2882 73.2267 86.7654 73.2495C91.2415 73.2722 94.8503 76.918 94.8286 81.394C94.8058 85.8712 91.159 89.4811 86.6829 89.4584Z" fill="#9AD3DA"/>
<path d="M125.682 89.6563C121.205 89.6336 117.596 85.9868 117.618 81.5107C117.641 77.0335 121.287 73.4247 125.765 73.4475C130.241 73.4702 133.85 77.116 133.828 81.592C133.805 86.0692 130.158 89.6791 125.682 89.6563Z" fill="#9AD3DA"/>
<path d="M56.1462 44.5937C56.1223 49.0698 52.4755 52.6797 47.9994 52.658C43.5245 52.6341 39.9135 48.9873 39.9362 44.5112C39.9601 40.0351 43.6058 36.4252 48.0819 36.4469C52.558 36.4708 56.169 40.1176 56.1462 44.5937Z" fill="#9AD3DA"/>
<path d="M47.8145 89.2605C43.3373 89.2377 39.7285 85.5909 39.7502 81.1148C39.773 76.6387 43.4198 73.0288 47.897 73.0516C52.3731 73.0744 55.9819 76.7201 55.9602 81.1962C55.9374 85.6733 52.2906 89.2832 47.8145 89.2605Z" fill="#9AD3DA"/>
<path d="M156.523 45.1036C156.547 40.6275 160.194 37.0176 164.67 37.0393C169.146 37.0632 172.756 40.71 172.733 45.1861C172.709 49.6621 169.064 53.272 164.588 53.2504C160.111 53.2265 156.5 49.5797 156.523 45.1036Z" fill="#9AD3DA"/>
<path d="M164.856 0.437773C169.332 0.460545 172.941 4.10736 172.919 8.58345C172.896 13.0595 169.249 16.6694 164.773 16.6467C160.296 16.6239 156.687 12.9782 156.709 8.50208C156.732 4.0249 160.379 0.414995 164.856 0.437773Z" fill="#9AD3DA"/>
<path d="M126.136 0.240751C130.612 0.263523 134.221 3.91034 134.199 8.38643C134.176 12.8625 130.53 16.4724 126.054 16.4496C121.576 16.4269 117.968 12.7811 117.989 8.30506C118.012 3.82788 121.659 0.217973 126.136 0.240751Z" fill="#9AD3DA"/>
<path d="M164.484 73.6439C168.96 73.6667 172.569 77.3135 172.547 81.7896C172.524 86.2657 168.877 89.8756 164.401 89.8528C159.924 89.8301 156.315 86.1843 156.337 81.7083C156.36 77.2311 160.007 73.6212 164.484 73.6439Z" fill="#9AD3DA"/>
<path d="M202.167 16.8366C197.69 16.8139 194.081 13.1671 194.103 8.69097C194.126 4.21489 197.772 0.604983 202.25 0.627761C206.726 0.650533 210.334 4.29625 210.313 8.77234C210.29 13.2495 206.643 16.8594 202.167 16.8366Z" fill="#9AD3DA"/>
<path d="M249.464 45.5771C249.44 50.0531 245.793 53.6631 241.317 53.6414C236.842 53.6175 233.231 49.9707 233.254 45.4946C233.278 41.0185 236.923 37.4086 241.4 37.4303C245.876 37.4542 249.487 41.101 249.464 45.5771Z" fill="#9AD3DA"/>
<path d="M210.128 45.377C210.104 49.8531 206.457 53.463 201.981 53.4413C197.505 53.4174 193.895 49.7706 193.918 45.2945C193.942 40.8185 197.587 37.2085 202.063 37.2302C206.539 37.2541 210.15 40.9009 210.128 45.377Z" fill="#9AD3DA"/>
<path d="M201.796 90.0428C197.319 90.02 193.71 86.3732 193.732 81.8971C193.755 77.4211 197.401 73.8112 201.879 73.8339C206.355 73.8567 209.964 77.5024 209.942 81.9785C209.919 86.4557 206.272 90.0656 201.796 90.0428Z" fill="#9AD3DA"/>
<path d="M241.131 90.2439C236.654 90.2211 233.045 86.5743 233.067 82.0982C233.09 77.6221 236.737 74.0122 241.214 74.035C245.69 74.0578 249.299 77.7035 249.277 82.1796C249.254 86.6567 245.608 90.2666 241.131 90.2439Z" fill="#9AD3DA"/>
<path d="M86.4964 126.169C82.0192 126.147 78.4104 122.5 78.4321 118.024C78.4549 113.548 82.1017 109.938 86.5789 109.96C91.055 109.983 94.6638 113.629 94.6421 118.105C94.6193 122.582 90.9725 126.192 86.4964 126.169Z" fill="#9AD3DA"/>
<path d="M8.29182 125.772C3.81464 125.75 0.205838 122.103 0.227511 117.627C0.250288 113.149 3.8971 109.541 8.37428 109.563C12.8504 109.586 16.4592 113.232 16.4375 117.708C16.4147 122.185 12.7679 125.795 8.29182 125.772Z" fill="#9AD3DA"/>
<path d="M47.628 125.971C43.1508 125.949 39.542 122.302 39.5637 117.826C39.5865 113.348 43.2333 109.74 47.7105 109.762C52.1865 109.785 55.7954 113.431 55.7737 117.907C55.7509 122.384 52.1041 125.994 47.628 125.971Z" fill="#9AD3DA"/>
<path d="M133.455 154.908C133.431 159.385 129.784 162.994 125.308 162.973C120.832 162.949 117.222 159.302 117.245 154.826C117.269 150.35 120.914 146.74 125.391 146.762C129.867 146.786 133.478 150.432 133.455 154.908Z" fill="#9AD3DA"/>
<path d="M94.4558 154.71C94.4319 159.186 90.7851 162.795 86.309 162.774C81.8329 162.75 78.223 159.103 78.2458 154.627C78.2697 150.151 81.9154 146.541 86.3915 146.563C90.8676 146.587 94.4786 150.233 94.4558 154.71Z" fill="#9AD3DA"/>
<path d="M86.1231 199.376C81.6459 199.354 78.0371 195.707 78.0588 191.231C78.0816 186.755 81.7284 183.145 86.2056 183.168C90.6817 183.19 94.2905 186.836 94.2688 191.312C94.246 195.789 90.5992 199.399 86.1231 199.376Z" fill="#9AD3DA"/>
<path d="M125.123 199.575C120.646 199.553 117.037 195.906 117.059 191.43C117.082 186.953 120.729 183.344 125.206 183.367C129.682 183.389 133.291 187.035 133.269 191.511C133.246 195.988 129.599 199.598 125.123 199.575Z" fill="#9AD3DA"/>
<path d="M55.5886 154.512C55.5647 158.988 51.9179 162.598 47.4418 162.576C42.9657 162.552 39.3558 158.905 39.3786 154.429C39.4025 149.953 43.0482 146.343 47.5243 146.365C52.0004 146.389 55.6114 150.036 55.5886 154.512Z" fill="#9AD3DA"/>
<path d="M16.2512 154.313C16.2273 158.789 12.5805 162.399 8.10442 162.377C3.62944 162.353 0.0184409 158.706 0.041213 154.23C0.0650856 149.754 3.71081 146.144 8.18689 146.166C12.663 146.19 16.274 149.837 16.2512 154.313Z" fill="#9AD3DA"/>
<path d="M47.2559 199.18C42.7788 199.157 39.1699 195.51 39.1916 191.034C39.2144 186.557 42.8612 182.948 47.3384 182.971C51.8145 182.993 55.4233 186.639 55.4016 191.115C55.3788 195.592 51.732 199.202 47.2559 199.18Z" fill="#9AD3DA"/>
<path d="M155.964 155.023C155.988 150.547 159.635 146.937 164.111 146.958C168.586 146.982 172.197 150.629 172.174 155.105C172.15 159.581 168.505 163.191 164.029 163.169C159.553 163.146 155.942 159.499 155.964 155.023Z" fill="#9AD3DA"/>
<path d="M164.297 110.355C168.773 110.378 172.382 114.024 172.36 118.5C172.338 122.978 168.691 126.586 164.215 126.564C159.738 126.541 156.129 122.895 156.15 118.419C156.173 113.942 159.82 110.332 164.297 110.355Z" fill="#9AD3DA"/>
<path d="M125.577 110.158C130.053 110.181 133.662 113.827 133.64 118.304C133.618 122.781 129.971 126.39 125.495 126.367C121.018 126.344 117.409 122.698 117.43 118.222C117.453 113.745 121.1 110.135 125.577 110.158Z" fill="#9AD3DA"/>
<path d="M163.47 272.978C158.993 272.956 155.384 269.309 155.406 264.833C155.429 260.357 159.075 256.747 163.553 256.77C168.029 256.792 171.637 260.438 171.616 264.914C171.593 269.391 167.946 273.001 163.47 272.978Z" fill="#9AD3DA"/>
<path d="M133.082 228.116C133.058 232.592 129.411 236.202 124.935 236.18C120.459 236.156 116.849 232.509 116.872 228.033C116.896 223.557 120.541 219.947 125.017 219.969C129.494 219.993 133.105 223.64 133.082 228.116Z" fill="#9AD3DA"/>
<path d="M94.0837 227.918C94.0598 232.394 90.413 236.004 85.9369 235.982C81.4609 235.958 77.851 232.312 77.8737 227.835C77.8976 223.359 81.5433 219.749 86.0194 219.771C90.4955 219.795 94.1065 223.442 94.0837 227.918Z" fill="#9AD3DA"/>
<path d="M85.752 272.585C81.2748 272.562 77.666 268.915 77.6877 264.439C77.7105 259.963 81.3573 256.353 85.8345 256.376C90.3106 256.399 93.9194 260.044 93.8977 264.52C93.8749 268.998 90.2281 272.607 85.752 272.585Z" fill="#9AD3DA"/>
<path d="M124.75 272.783C120.273 272.76 116.664 269.113 116.686 264.637C116.709 260.16 120.356 256.551 124.833 256.574C129.309 256.596 132.918 260.242 132.896 264.718C132.873 269.195 129.226 272.805 124.75 272.783Z" fill="#9AD3DA"/>
<path d="M55.2153 227.72C55.1914 232.196 51.5446 235.806 47.0685 235.784C42.5925 235.76 38.9826 232.114 39.0053 227.637C39.0292 223.161 42.6749 219.551 47.151 219.573C51.6271 219.597 55.2381 223.244 55.2153 227.72Z" fill="#9AD3DA"/>
<path d="M155.591 228.23C155.615 223.754 159.262 220.144 163.738 220.166C168.213 220.189 171.824 223.836 171.801 228.312C171.777 232.788 168.132 236.398 163.656 236.377C159.18 236.353 155.569 232.706 155.591 228.23Z" fill="#9AD3DA"/>
<path d="M163.925 183.563C168.401 183.586 172.01 187.233 171.988 191.709C171.965 196.185 168.318 199.795 163.842 199.772C159.365 199.749 155.756 196.103 155.778 191.627C155.801 187.15 159.448 183.54 163.925 183.563Z" fill="#9AD3DA"/>
<path d="M279.813 127.152C275.336 127.129 271.727 123.482 271.749 119.006C271.772 114.53 275.418 110.92 279.896 110.943C284.372 110.965 287.98 114.611 287.959 119.087C287.936 123.564 284.289 127.174 279.813 127.152Z" fill="#9AD3DA"/>
<path d="M201.609 126.754C197.132 126.731 193.523 123.084 193.545 118.608C193.568 114.131 197.215 110.522 201.692 110.545C206.168 110.568 209.777 114.213 209.755 118.689C209.732 123.167 206.086 126.776 201.609 126.754Z" fill="#9AD3DA"/>
<path d="M240.946 126.954C236.469 126.931 232.86 123.284 232.882 118.808C232.904 114.332 236.551 110.722 241.028 110.745C245.504 110.768 249.113 114.413 249.092 118.889C249.069 123.367 245.422 126.976 240.946 126.954Z" fill="#9AD3DA"/>
<path d="M287.772 155.693C287.749 160.169 284.102 163.779 279.626 163.757C275.151 163.733 271.54 160.087 271.562 155.61C271.586 151.134 275.232 147.524 279.708 147.546C284.184 147.57 287.795 151.217 287.772 155.693Z" fill="#9AD3DA"/>
<path d="M248.904 155.495C248.88 159.971 245.234 163.581 240.757 163.559C236.283 163.535 232.672 159.889 232.694 155.413C232.718 150.936 236.364 147.327 240.84 147.348C245.316 147.372 248.927 151.019 248.904 155.495Z" fill="#9AD3DA"/>
<path d="M209.569 155.295C209.545 159.771 205.898 163.381 201.422 163.359C196.947 163.336 193.336 159.689 193.359 155.213C193.383 150.737 197.029 147.127 201.505 147.148C205.981 147.172 209.592 150.819 209.569 155.295Z" fill="#9AD3DA"/>
<path d="M201.237 199.962C196.76 199.939 193.151 196.292 193.173 191.816C193.196 187.34 196.843 183.73 201.32 183.753C205.796 183.776 209.405 187.422 209.383 191.898C209.36 196.375 205.713 199.985 201.237 199.962Z" fill="#9AD3DA"/>
<path d="M240.573 200.162C236.095 200.139 232.487 196.492 232.508 192.016C232.531 187.539 236.178 183.93 240.655 183.953C245.131 183.976 248.74 187.622 248.718 192.098C248.695 196.575 245.049 200.185 240.573 200.162Z" fill="#9AD3DA"/>
<path d="M248.532 228.702C248.508 233.178 244.862 236.788 240.385 236.767C235.91 236.743 232.299 233.096 232.322 228.62C232.346 224.144 235.992 220.534 240.468 220.556C244.944 220.579 248.555 224.226 248.532 228.702Z" fill="#9AD3DA"/>
<path d="M209.196 228.502C209.172 232.978 205.525 236.588 201.049 236.567C196.573 236.543 192.963 232.896 192.986 228.42C193.01 223.944 196.655 220.334 201.131 220.355C205.608 220.379 209.219 224.026 209.196 228.502Z" fill="#9AD3DA"/>
<path d="M200.864 273.169C196.387 273.146 192.778 269.5 192.8 265.023C192.823 260.547 196.47 256.938 200.947 256.96C205.423 256.983 209.032 260.629 209.01 265.105C208.987 269.582 205.34 273.192 200.864 273.169Z" fill="#9AD3DA"/>
</svg>
